<?xml version="1.0" encoding="UTF-8" standalone="no"?>
<!DOCTYPE svg PUBLIC "-//W3C//DTD SVG 1.1//EN" "http://www.w3.org/Graphics/SVG/1.1/DTD/svg11.dtd">
<svg width="100%" height="100%" viewBox="0 0 512 512" version="1.1" xmlns="http://www.w3.org/2000/svg" xmlns:xlink="http://www.w3.org/1999/xlink" xml:space="preserve" xmlns:serif="http://www.serif.com/" style="fill-rule:evenodd;clip-rule:evenodd;stroke-linejoin:round;stroke-miterlimit:2;">
    <g transform="matrix(42.6667,0,0,42.6667,-4197.27,-8512.69)">
        <path d="M105.927,207.391C106.392,207.391 106.82,207.555 107.153,207.829C106.532,208.706 105.548,209.266 104.43,209.266L104.317,209.266C104.209,209.266 104.104,209.261 104.001,209.252C104.036,208.218 104.884,207.391 105.927,207.391ZM110.374,205.516C110.374,208.83 107.688,211.516 104.374,211.516C101.059,211.516 98.374,208.83 98.374,205.516C98.374,202.202 101.059,199.516 104.374,199.516C107.688,199.516 110.374,202.202 110.374,205.516ZM103.143,203.275C103.012,203.493 102.773,203.641 102.499,203.641C102.084,203.641 101.749,203.306 101.749,202.891C101.749,202.678 101.838,202.483 101.962,202.347C101.906,202.336 101.828,202.329 101.749,202.329C100.921,202.329 100.249,203.001 100.249,203.829L100.249,204.07C100.249,204.454 100.56,204.766 100.945,204.766L102.552,204.766C102.937,204.766 103.249,204.454 103.249,204.07L103.249,203.829C103.249,203.634 103.211,203.447 103.143,203.275ZM106.624,202.891C106.624,202.692 106.701,202.509 106.83,202.354C106.703,202.345 106.572,202.329 106.436,202.329C105.503,202.329 104.749,203.083 104.749,204.016L104.749,204.192C104.749,204.508 104.985,204.766 105.323,204.766L107.549,204.766C107.866,204.766 108.124,204.508 108.124,204.192L108.124,204.016C108.124,203.772 108.072,203.543 107.981,203.334C107.842,203.519 107.622,203.641 107.374,203.641C106.959,203.641 106.624,203.306 106.624,202.891ZM104.317,210.016C104.317,210.016 104.43,210.016 104.43,210.016C105.724,210.016 106.893,209.386 107.641,208.434C108.009,207.956 108.274,207.389 108.4,206.763C108.431,206.505 108.255,206.266 107.992,206.266L100.755,206.266C100.493,206.266 100.297,206.505 100.348,206.763C100.714,208.591 102.278,209.925 104.127,210.011C104.188,210.014 104.252,210.016 104.317,210.016Z" style="fill:rgb(254,199,199);fill-rule:nonzero;"/>
    </g>
</svg>
